<svg width="33" height="33" viewBox="0 0 33 33" fill="none" xmlns="http://www.w3.org/2000/svg">
<g filter="url(#filter0_d_20_17)">
<path d="M17.308 4.14062H15.6414V13.4172L21.6629 16.2791L22.3783 14.7738L17.308 12.364V4.14062Z" fill="#18D860"/>
<path d="M16.5 0C9.59646 0 4 5.59646 4 12.5C4 19.4035 9.59646 25 16.5 25C23.4035 25 29 19.4035 29 12.5C29 5.59646 23.4035 0 16.5 0ZM16.5 23.3333C10.5169 23.3333 5.66667 18.4831 5.66667 12.5C5.66667 6.51693 10.5169 1.66667 16.5 1.66667C22.4831 1.66667 27.3333 6.51693 27.3333 12.5C27.3333 18.4831 22.4831 23.3333 16.5 23.3333Z" fill="#18D860"/>
</g>
<defs>
<filter id="filter0_d_20_17" x="0" y="0" width="33" height="33" filterUnits="userSpaceOnUse" color-interpolation-filters="sRGB">
<feFlood flood-opacity="0" result="BackgroundImageFix"/>
<feColorMatrix in="SourceAlpha" type="matrix" values="0 0 0 0 0 0 0 0 0 0 0 0 0 0 0 0 0 0 127 0" result="hardAlpha"/>
<feOffset dy="4"/>
<feGaussianBlur stdDeviation="2"/>
<feComposite in2="hardAlpha" operator="out"/>
<feColorMatrix type="matrix" values="0 0 0 0 0 0 0 0 0 0 0 0 0 0 0 0 0 0 0.25 0"/>
<feBlend mode="normal" in2="BackgroundImageFix" result="effect1_dropShadow_20_17"/>
<feBlend mode="normal" in="SourceGraphic" in2="effect1_dropShadow_20_17" result="shape"/>
</filter>
</defs>
</svg>
