<svg width="17" height="18" viewBox="0 0 17 18" fill="none" xmlns="http://www.w3.org/2000/svg">
<path d="M16.3333 2H5.33334V3.33333H16.3333V2Z" fill="#18D860"/>
<path d="M0 2.66667C0 3.19408 0.156397 3.70966 0.449414 4.14819C0.742431 4.58672 1.15891 4.92851 1.64618 5.13035C2.13345 5.33218 2.66962 5.38499 3.18691 5.28209C3.70419 5.1792 4.17934 4.92522 4.55228 4.55228C4.92522 4.17934 5.1792 3.70419 5.28209 3.18691C5.38499 2.66962 5.33218 2.13345 5.13035 1.64618C4.92851 1.15891 4.58672 0.742431 4.14819 0.449414C3.70966 0.156397 3.19408 0 2.66667 0C1.95967 0.000794036 1.28185 0.282001 0.781925 0.781925C0.282001 1.28185 0.000794036 1.95967 0 2.66667ZM2.66667 1.33333C2.93037 1.33333 3.18816 1.41153 3.40743 1.55804C3.62669 1.70455 3.79759 1.91279 3.89851 2.15642C3.99942 2.40006 4.02583 2.66815 3.97438 2.92679C3.92293 3.18543 3.79595 3.42301 3.60948 3.60948C3.42301 3.79595 3.18543 3.92293 2.92679 3.97438C2.66815 4.02583 2.40006 3.99942 2.15642 3.89851C1.91279 3.79759 1.70455 3.62669 1.55804 3.40743C1.41153 3.18816 1.33333 2.93037 1.33333 2.66667C1.33373 2.31317 1.47433 1.97426 1.7243 1.7243C1.97426 1.47433 2.31317 1.33373 2.66667 1.33333Z" fill="#18D860"/>
<path d="M16.3333 8.33334H5.33334V9.66668H16.3333V8.33334Z" fill="#18D860"/>
<path d="M2.66667 11.6667C3.19408 11.6667 3.70966 11.5103 4.14819 11.2173C4.58672 10.9242 4.92851 10.5078 5.13035 10.0205C5.33218 9.53323 5.38499 8.99705 5.28209 8.47977C5.1792 7.96249 4.92522 7.48733 4.55228 7.11439C4.17934 6.74145 3.70419 6.48748 3.18691 6.38458C2.66962 6.28169 2.13345 6.3345 1.64618 6.53633C1.15891 6.73817 0.742431 7.07996 0.449414 7.51849C0.156397 7.95702 0 8.47259 0 9.00001C0.000794036 9.70701 0.282001 10.3848 0.781925 10.8848C1.28185 11.3847 1.95967 11.6659 2.66667 11.6667ZM2.66667 7.66668C2.93037 7.66668 3.18816 7.74488 3.40743 7.89139C3.62669 8.03789 3.79759 8.24613 3.89851 8.48977C3.99942 8.7334 4.02583 9.00149 3.97438 9.26013C3.92293 9.51877 3.79595 9.75635 3.60948 9.94282C3.42301 10.1293 3.18543 10.2563 2.92679 10.3077C2.66815 10.3592 2.40006 10.3328 2.15642 10.2319C1.91279 10.1309 1.70455 9.96004 1.55804 9.74077C1.41153 9.52151 1.33333 9.26372 1.33333 9.00001C1.33373 8.64651 1.47433 8.3076 1.7243 8.05764C1.97426 7.80768 2.31317 7.66708 2.66667 7.66668Z" fill="#18D860"/>
<path d="M16.3333 14.6667H5.33334V16H16.3333V14.6667Z" fill="#18D860"/>
<path d="M2.66667 18C3.19408 18 3.70966 17.8436 4.14819 17.5506C4.58672 17.2576 4.92851 16.8411 5.13035 16.3538C5.33218 15.8666 5.38499 15.3304 5.28209 14.8131C5.1792 14.2958 4.92522 13.8207 4.55228 13.4477C4.17934 13.0748 3.70419 12.8208 3.18691 12.7179C2.66962 12.615 2.13345 12.6678 1.64618 12.8697C1.15891 13.0715 0.742431 13.4133 0.449414 13.8518C0.156397 14.2904 0 14.8059 0 15.3334C0.000794036 16.0404 0.282001 16.7182 0.781925 17.2181C1.28185 17.718 1.95967 17.9992 2.66667 18ZM2.66667 14C2.93037 14 3.18816 14.0782 3.40743 14.2247C3.62669 14.3712 3.79759 14.5795 3.89851 14.8231C3.99942 15.0667 4.02583 15.3348 3.97438 15.5935C3.92293 15.8521 3.79595 16.0897 3.60948 16.2762C3.42301 16.4626 3.18543 16.5896 2.92679 16.6411C2.66815 16.6925 2.40006 16.6661 2.15642 16.5652C1.91279 16.4643 1.70455 16.2934 1.55804 16.0741C1.41153 15.8549 1.33333 15.5971 1.33333 15.3334C1.33373 14.9799 1.47433 14.6409 1.7243 14.391C1.97426 14.141 2.31317 14.0004 2.66667 14Z" fill="#18D860"/>
</svg>
